# xmcd
#
# Track frame offsets: 
#        150
#        17866
#        33765
#        55445
#        73294
#        88860
#        107976
#        128629
#        144002
#        165151
#
# Disc length: 2458 seconds
#
# Revision: 0
# Processed by: cddbd v1.5.1PL2 Copyright (c) Steve Scherf et al.
# Submitted via: ExactAudioCopy v0.95b4
#
DISCID=8109980a
DTITLE=Silent Witness - Thrills
DYEAR=1998
DGENRE=Hard Rock
TTITLE0=All She Had On Was The Radio
TTITLE1=Thunder and Lightning
TTITLE2=One Winged Angel
TTITLE3=Blood Is Thicker Than Water
TTITLE4=Shipwrecked
TTITLE5=Run Thru The Night (I'll Wait, Part 2)
TTITLE6=1,000 Times Forever
TTITLE7=Somebody Beat Me To The Punch
TTITLE8=Without You
TTITLE9=Plain' With The Boyz
EXTD=
EXTT0=
EXTT1=
EXTT2=
EXTT3=
EXTT4=
EXTT5=
EXTT6=
EXTT7=
EXTT8=
EXTT9=
PLAYORDER=
